<svg width="146" height="24" viewBox="0 0 146 24" fill="none" xmlns="http://www.w3.org/2000/svg">
<path d="M4.618 18.03L0.25 6.126H3.466L6.49 15.126L9.514 6.126H12.73L8.338 18.03H4.618Z" fill="#F64920"/>
<path d="M16.4736 4.278C15.9136 4.278 15.4496 4.11 15.0816 3.774C14.7296 3.438 14.5536 3.014 14.5536 2.502C14.5536 1.99 14.7296 1.574 15.0816 1.254C15.4496 0.918 15.9136 0.75 16.4736 0.75C17.0336 0.75 17.4896 0.918 17.8416 1.254C18.2096 1.574 18.3936 1.99 18.3936 2.502C18.3936 3.014 18.2096 3.438 17.8416 3.774C17.4896 4.11 17.0336 4.278 16.4736 4.278ZM14.9376 18.03V6.126H18.0096V18.03H14.9376Z" fill="#F64920"/>
<path d="M26.8381 18.318C25.7181 18.318 24.7181 18.046 23.8381 17.502C22.9581 16.958 22.2621 16.214 21.7501 15.27C21.2381 14.326 20.9821 13.254 20.9821 12.054C20.9821 10.854 21.2381 9.79 21.7501 8.862C22.2621 7.918 22.9581 7.182 23.8381 6.654C24.7181 6.11 25.7181 5.838 26.8381 5.838C27.7341 5.838 28.5181 6.006 29.1901 6.342C29.8621 6.678 30.4061 7.15 30.8221 7.758V0.75H33.8941V18.03H31.1581L30.8221 16.326C30.4381 16.854 29.9261 17.318 29.2861 17.718C28.6621 18.118 27.8461 18.318 26.8381 18.318ZM27.4861 15.63C28.4781 15.63 29.2861 15.302 29.9101 14.646C30.5501 13.974 30.8701 13.118 30.8701 12.078C30.8701 11.038 30.5501 10.19 29.9101 9.534C29.2861 8.862 28.4781 8.526 27.4861 8.526C26.5101 8.526 25.7021 8.854 25.0621 9.51C24.4221 10.166 24.1021 11.014 24.1021 12.054C24.1021 13.094 24.4221 13.95 25.0621 14.622C25.7021 15.294 26.5101 15.63 27.4861 15.63Z" fill="#F64920"/>
<path d="M42.9563 18.318C41.7563 18.318 40.6923 18.062 39.7643 17.55C38.8363 17.038 38.1083 16.318 37.5803 15.39C37.0523 14.462 36.7883 13.39 36.7883 12.174C36.7883 10.942 37.0443 9.846 37.5563 8.886C38.0843 7.926 38.8043 7.182 39.7163 6.654C40.6443 6.11 41.7323 5.838 42.9803 5.838C44.1483 5.838 45.1803 6.094 46.0763 6.606C46.9723 7.118 47.6683 7.822 48.1643 8.718C48.6763 9.598 48.9323 10.582 48.9323 11.67C48.9323 11.846 48.9243 12.03 48.9083 12.222C48.9083 12.414 48.9003 12.614 48.8843 12.822H39.8363C39.9003 13.75 40.2203 14.478 40.7963 15.006C41.3883 15.534 42.1003 15.798 42.9323 15.798C43.5563 15.798 44.0763 15.662 44.4923 15.39C44.9243 15.102 45.2443 14.734 45.4523 14.286H48.5723C48.3483 15.038 47.9723 15.726 47.4443 16.35C46.9323 16.958 46.2923 17.438 45.5243 17.79C44.7723 18.142 43.9163 18.318 42.9563 18.318ZM42.9803 8.334C42.2283 8.334 41.5643 8.55 40.9883 8.982C40.4123 9.398 40.0443 10.038 39.8843 10.902H45.8123C45.7643 10.118 45.4763 9.494 44.9483 9.03C44.4203 8.566 43.7643 8.334 42.9803 8.334Z" fill="#F64920"/>
<path d="M57.3781 18.318C56.2261 18.318 55.1861 18.054 54.2581 17.526C53.3461 16.998 52.6181 16.27 52.0741 15.342C51.5461 14.398 51.2821 13.31 51.2821 12.078C51.2821 10.846 51.5541 9.766 52.0981 8.838C52.6421 7.894 53.3701 7.158 54.2821 6.63C55.2101 6.102 56.2501 5.838 57.4021 5.838C58.5381 5.838 59.5621 6.102 60.4741 6.63C61.4021 7.158 62.1301 7.894 62.6581 8.838C63.2021 9.766 63.4741 10.846 63.4741 12.078C63.4741 13.31 63.2021 14.398 62.6581 15.342C62.1301 16.27 61.4021 16.998 60.4741 17.526C59.5461 18.054 58.5141 18.318 57.3781 18.318ZM57.3781 15.654C58.1781 15.654 58.8741 15.358 59.4661 14.766C60.0581 14.158 60.3541 13.262 60.3541 12.078C60.3541 10.894 60.0581 10.006 59.4661 9.414C58.8741 8.806 58.1861 8.502 57.4021 8.502C56.5861 8.502 55.8821 8.806 55.2901 9.414C54.7141 10.006 54.4261 10.894 54.4261 12.078C54.4261 13.262 54.7141 14.158 55.2901 14.766C55.8821 15.358 56.5781 15.654 57.3781 15.654Z" fill="#F64920"/>
<path d="M73.4267 18.318C72.5307 18.318 71.7467 18.15 71.0747 17.814C70.4027 17.478 69.8587 17.006 69.4427 16.398L69.1067 18.03H66.3708V0.75H69.4427V7.83C69.8267 7.302 70.3307 6.838 70.9548 6.438C71.5947 6.038 72.4187 5.838 73.4267 5.838C74.5467 5.838 75.5467 6.11 76.4267 6.654C77.3067 7.198 78.0027 7.942 78.5147 8.886C79.0267 9.83 79.2827 10.902 79.2827 12.102C79.2827 13.302 79.0267 14.374 78.5147 15.318C78.0027 16.246 77.3067 16.982 76.4267 17.526C75.5467 18.054 74.5467 18.318 73.4267 18.318ZM72.7787 15.63C73.7547 15.63 74.5627 15.302 75.2027 14.646C75.8428 13.99 76.1627 13.142 76.1627 12.102C76.1627 11.062 75.8428 10.206 75.2027 9.534C74.5627 8.862 73.7547 8.526 72.7787 8.526C71.7867 8.526 70.9707 8.862 70.3307 9.534C69.7067 10.19 69.3947 11.038 69.3947 12.078C69.3947 13.118 69.7067 13.974 70.3307 14.646C70.9707 15.302 71.7867 15.63 72.7787 15.63Z" fill="#F64920"/>
<path d="M87.961 18.318C86.761 18.318 85.697 18.062 84.769 17.55C83.841 17.038 83.113 16.318 82.585 15.39C82.057 14.462 81.793 13.39 81.793 12.174C81.793 10.942 82.049 9.846 82.561 8.886C83.089 7.926 83.809 7.182 84.721 6.654C85.649 6.11 86.737 5.838 87.985 5.838C89.153 5.838 90.185 6.094 91.081 6.606C91.977 7.118 92.673 7.822 93.169 8.718C93.681 9.598 93.937 10.582 93.937 11.67C93.937 11.846 93.929 12.03 93.913 12.222C93.913 12.414 93.905 12.614 93.889 12.822H84.841C84.905 13.75 85.225 14.478 85.801 15.006C86.393 15.534 87.105 15.798 87.937 15.798C88.561 15.798 89.081 15.662 89.497 15.39C89.929 15.102 90.249 14.734 90.457 14.286H93.577C93.353 15.038 92.977 15.726 92.449 16.35C91.937 16.958 91.297 17.438 90.529 17.79C89.777 18.142 88.921 18.318 87.961 18.318ZM87.985 8.334C87.233 8.334 86.569 8.55 85.993 8.982C85.417 9.398 85.049 10.038 84.889 10.902H90.817C90.769 10.118 90.481 9.494 89.953 9.03C89.425 8.566 88.769 8.334 87.985 8.334Z" fill="#F64920"/>
<path d="M96.6707 18.03V0.75H99.7427V18.03H96.6707Z" fill="#F64920"/>
<path d="M107.136 18.318C106.112 18.318 105.272 18.158 104.616 17.838C103.96 17.502 103.472 17.062 103.152 16.518C102.832 15.974 102.672 15.374 102.672 14.718C102.672 13.614 103.104 12.718 103.968 12.03C104.832 11.342 106.128 10.998 107.856 10.998H110.88V10.71C110.88 9.894 110.648 9.294 110.184 8.91C109.72 8.526 109.144 8.334 108.456 8.334C107.832 8.334 107.288 8.486 106.824 8.79C106.36 9.078 106.072 9.51 105.96 10.086H102.96C103.04 9.222 103.328 8.47 103.824 7.83C104.336 7.19 104.992 6.702 105.792 6.366C106.592 6.014 107.488 5.838 108.48 5.838C110.176 5.838 111.512 6.262 112.488 7.11C113.464 7.958 113.952 9.158 113.952 10.71V18.03H111.336L111.048 16.11C110.696 16.75 110.2 17.278 109.56 17.694C108.936 18.11 108.128 18.318 107.136 18.318ZM107.832 15.918C108.712 15.918 109.392 15.63 109.872 15.054C110.368 14.478 110.68 13.766 110.808 12.918H108.192C107.376 12.918 106.792 13.07 106.44 13.374C106.088 13.662 105.912 14.022 105.912 14.454C105.912 14.918 106.088 15.278 106.44 15.534C106.792 15.79 107.256 15.918 107.832 15.918Z" fill="#F64920"/>
<path d="M118.737 4.278C118.177 4.278 117.713 4.11 117.345 3.774C116.993 3.438 116.817 3.014 116.817 2.502C116.817 1.99 116.993 1.574 117.345 1.254C117.713 0.918 118.177 0.75 118.737 0.75C119.297 0.75 119.753 0.918 120.105 1.254C120.473 1.574 120.657 1.99 120.657 2.502C120.657 3.014 120.473 3.438 120.105 3.774C119.753 4.11 119.297 4.278 118.737 4.278ZM114.777 23.31V20.694H115.713C116.241 20.694 116.617 20.59 116.841 20.382C117.065 20.174 117.177 19.822 117.177 19.326V6.126H120.249V19.326C120.249 20.766 119.881 21.79 119.145 22.398C118.425 23.006 117.441 23.31 116.193 23.31H114.777Z" fill="#F64920"/>
<path d="M127.709 18.318C126.685 18.318 125.845 18.158 125.189 17.838C124.533 17.502 124.045 17.062 123.725 16.518C123.405 15.974 123.245 15.374 123.245 14.718C123.245 13.614 123.677 12.718 124.541 12.03C125.405 11.342 126.701 10.998 128.429 10.998H131.453V10.71C131.453 9.894 131.221 9.294 130.757 8.91C130.293 8.526 129.717 8.334 129.029 8.334C128.405 8.334 127.861 8.486 127.397 8.79C126.933 9.078 126.645 9.51 126.533 10.086H123.533C123.613 9.222 123.901 8.47 124.397 7.83C124.909 7.19 125.565 6.702 126.365 6.366C127.165 6.014 128.061 5.838 129.053 5.838C130.749 5.838 132.085 6.262 133.061 7.11C134.037 7.958 134.525 9.158 134.525 10.71V18.03H131.909L131.621 16.11C131.269 16.75 130.773 17.278 130.133 17.694C129.509 18.11 128.701 18.318 127.709 18.318ZM128.405 15.918C129.285 15.918 129.965 15.63 130.445 15.054C130.941 14.478 131.253 13.766 131.381 12.918H128.765C127.949 12.918 127.365 13.07 127.013 13.374C126.661 13.662 126.485 14.022 126.485 14.454C126.485 14.918 126.661 15.278 127.013 15.534C127.365 15.79 127.829 15.918 128.405 15.918Z" fill="#F64920"/>
<path d="M137.607 18.03V6.126H140.343L140.631 8.358C141.063 7.59 141.647 6.982 142.383 6.534C143.135 6.07 144.015 5.838 145.023 5.838V9.078H144.159C143.487 9.078 142.887 9.182 142.359 9.39C141.831 9.598 141.415 9.958 141.111 10.47C140.823 10.982 140.679 11.694 140.679 12.606V18.03H137.607Z" fill="#F64920"/>
<path fill-rule="evenodd" clip-rule="evenodd" d="M15.0816 3.774C15.4496 4.11 15.9136 4.278 16.4736 4.278C17.0336 4.278 17.4896 4.11 17.8416 3.774C18.2096 3.438 18.3936 3.014 18.3936 2.502C18.3936 1.99 18.2096 1.574 17.8416 1.254C17.4896 0.918 17.0336 0.75 16.4736 0.75C15.9136 0.75 15.4496 0.918 15.0816 1.254C14.7296 1.574 14.5536 1.99 14.5536 2.502C14.5536 3.014 14.7296 3.438 15.0816 3.774ZM14.9376 6.126V18.03H18.0096V6.126H14.9376ZM0.25 6.126L4.618 18.03H8.338L12.73 6.126H9.514L6.49 15.126L3.466 6.126H0.25ZM26.8381 18.318C25.7181 18.318 24.7181 18.046 23.8381 17.502C22.9581 16.958 22.2621 16.214 21.7501 15.27C21.2381 14.326 20.9821 13.254 20.9821 12.054C20.9821 10.854 21.2381 9.79 21.7501 8.862C22.2621 7.918 22.9581 7.182 23.8381 6.654C24.7181 6.11 25.7181 5.838 26.8381 5.838C27.7341 5.838 28.5181 6.006 29.1901 6.342C29.8621 6.678 30.4061 7.15 30.8221 7.758V0.75H33.8941V18.03H31.1581L30.8221 16.326C30.4381 16.854 29.9261 17.318 29.2861 17.718C28.6621 18.118 27.8461 18.318 26.8381 18.318ZM27.4861 15.63C28.4781 15.63 29.2861 15.302 29.9101 14.646C30.5501 13.974 30.8701 13.118 30.8701 12.078C30.8701 11.038 30.5501 10.19 29.9101 9.534C29.2861 8.862 28.4781 8.526 27.4861 8.526C26.5101 8.526 25.7021 8.854 25.0621 9.51C24.4221 10.166 24.1021 11.014 24.1021 12.054C24.1021 13.094 24.4221 13.95 25.0621 14.622C25.7021 15.294 26.5101 15.63 27.4861 15.63ZM39.7643 17.55C40.6923 18.062 41.7563 18.318 42.9563 18.318C43.9163 18.318 44.7723 18.142 45.5243 17.79C46.2923 17.438 46.9323 16.958 47.4443 16.35C47.9723 15.726 48.3483 15.038 48.5723 14.286H45.4523C45.2443 14.734 44.9243 15.102 44.4923 15.39C44.0763 15.662 43.5563 15.798 42.9323 15.798C42.1003 15.798 41.3883 15.534 40.7963 15.006C40.2203 14.478 39.9003 13.75 39.8363 12.822H48.8843C48.9003 12.614 48.9083 12.414 48.9083 12.222C48.9243 12.03 48.9323 11.846 48.9323 11.67C48.9323 10.582 48.6763 9.598 48.1643 8.718C47.6683 7.822 46.9723 7.118 46.0763 6.606C45.1803 6.094 44.1483 5.838 42.9803 5.838C41.7323 5.838 40.6443 6.11 39.7163 6.654C38.8043 7.182 38.0843 7.926 37.5563 8.886C37.0443 9.846 36.7883 10.942 36.7883 12.174C36.7883 13.39 37.0523 14.462 37.5803 15.39C38.1083 16.318 38.8363 17.038 39.7643 17.55ZM40.9883 8.982C41.5643 8.55 42.2283 8.334 42.9803 8.334C43.7643 8.334 44.4203 8.566 44.9483 9.03C45.4763 9.494 45.7643 10.118 45.8123 10.902H39.8843C40.0443 10.038 40.4123 9.398 40.9883 8.982ZM57.3781 18.318C56.2261 18.318 55.1861 18.054 54.2581 17.526C53.3461 16.998 52.6181 16.27 52.0741 15.342C51.5461 14.398 51.2821 13.31 51.2821 12.078C51.2821 10.846 51.5541 9.766 52.0981 8.838C52.6421 7.894 53.3701 7.158 54.2821 6.63C55.2101 6.102 56.2501 5.838 57.4021 5.838C58.5381 5.838 59.5621 6.102 60.4741 6.63C61.4021 7.158 62.1301 7.894 62.6581 8.838C63.2021 9.766 63.4741 10.846 63.4741 12.078C63.4741 13.31 63.2021 14.398 62.6581 15.342C62.1301 16.27 61.4021 16.998 60.4741 17.526C59.5461 18.054 58.5141 18.318 57.3781 18.318ZM57.3781 15.654C58.1781 15.654 58.8741 15.358 59.4661 14.766C60.0581 14.158 60.3541 13.262 60.3541 12.078C60.3541 10.894 60.0581 10.006 59.4661 9.414C58.8741 8.806 58.1861 8.502 57.4021 8.502C56.5861 8.502 55.8821 8.806 55.2901 9.414C54.7141 10.006 54.4261 10.894 54.4261 12.078C54.4261 13.262 54.7141 14.158 55.2901 14.766C55.8821 15.358 56.5781 15.654 57.3781 15.654ZM79.2827 12.0802C76.8386 13.8379 74.6506 15.9292 72.785 18.2874C72.1513 18.225 71.5812 18.0672 71.0747 17.814C70.4027 17.478 69.8587 17.006 69.4427 16.398L69.1067 18.03H66.3708V0.75H69.4427V7.83C69.8267 7.302 70.3307 6.838 70.9548 6.438C71.5947 6.038 72.4187 5.838 73.4267 5.838C74.5467 5.838 75.5467 6.11 76.4267 6.654C77.3067 7.198 78.0027 7.942 78.5147 8.886C79.0236 9.82428 79.2796 10.889 79.2827 12.0802ZM91.3106 6.7442C87.993 7.45419 84.8646 8.67444 82.0115 10.3188C82.1389 9.8116 82.3221 9.33399 82.561 8.886C83.089 7.926 83.809 7.182 84.721 6.654C85.649 6.11 86.737 5.838 87.985 5.838C89.153 5.838 90.185 6.094 91.081 6.606C91.159 6.65061 91.2356 6.69667 91.3106 6.7442ZM99.7427 6.0715C99.196 6.04393 98.6456 6.02998 98.092 6.02998C97.6158 6.02998 97.142 6.04031 96.6707 6.06074V0.75H99.7427V6.0715ZM113.932 10.1814C111.182 8.62812 108.182 7.46674 105.007 6.77309C105.251 6.6189 105.513 6.4832 105.792 6.366C106.592 6.014 107.488 5.838 108.48 5.838C110.176 5.838 111.512 6.262 112.488 7.11C113.35 7.85911 113.831 8.8829 113.932 10.1814ZM120.249 14.8465C119.28 13.9299 118.254 13.0727 117.177 12.2808V6.126H120.249V14.8465ZM75.2027 14.646C74.5627 15.302 73.7547 15.63 72.7787 15.63C71.7867 15.63 70.9707 15.302 70.3307 14.646C69.7067 13.974 69.3947 13.118 69.3947 12.078C69.3947 11.038 69.7067 10.19 70.3307 9.534C70.9707 8.862 71.7867 8.526 72.7787 8.526C73.7547 8.526 74.5627 8.862 75.2027 9.534C75.8428 10.206 76.1627 11.062 76.1627 12.102C76.1627 13.142 75.8428 13.99 75.2027 14.646ZM117.345 3.774C117.713 4.11 118.177 4.278 118.737 4.278C119.297 4.278 119.753 4.11 120.105 3.774C120.473 3.438 120.657 3.014 120.657 2.502C120.657 1.99 120.473 1.574 120.105 1.254C119.753 0.918 119.297 0.75 118.737 0.75C118.177 0.75 117.713 0.918 117.345 1.254C116.993 1.574 116.817 1.99 116.817 2.502C116.817 3.014 116.993 3.438 117.345 3.774ZM127.709 18.318C126.685 18.318 125.845 18.158 125.189 17.838C124.533 17.502 124.045 17.062 123.725 16.518C123.405 15.974 123.245 15.374 123.245 14.718C123.245 13.614 123.677 12.718 124.541 12.03C125.405 11.342 126.701 10.998 128.429 10.998H131.453V10.71C131.453 9.894 131.221 9.294 130.757 8.91C130.293 8.526 129.717 8.334 129.029 8.334C128.405 8.334 127.861 8.486 127.397 8.79C126.933 9.078 126.645 9.51 126.533 10.086H123.533C123.613 9.222 123.901 8.47 124.397 7.83C124.909 7.19 125.565 6.702 126.365 6.366C127.165 6.014 128.061 5.838 129.053 5.838C130.749 5.838 132.085 6.262 133.061 7.11C134.037 7.958 134.525 9.158 134.525 10.71V18.03H131.909L131.621 16.11C131.269 16.75 130.773 17.278 130.133 17.694C129.509 18.11 128.701 18.318 127.709 18.318ZM128.405 15.918C129.285 15.918 129.965 15.63 130.445 15.054C130.941 14.478 131.253 13.766 131.381 12.918H128.765C127.949 12.918 127.365 13.07 127.013 13.374C126.661 13.662 126.485 14.022 126.485 14.454C126.485 14.918 126.661 15.278 127.013 15.534C127.365 15.79 127.829 15.918 128.405 15.918ZM137.607 6.126V18.03H140.679V12.606C140.679 11.694 140.823 10.982 141.111 10.47C141.415 9.958 141.831 9.598 142.359 9.39C142.887 9.182 143.487 9.078 144.159 9.078H145.023V5.838C144.015 5.838 143.135 6.07 142.383 6.534C141.647 6.982 141.063 7.59 140.631 8.358L140.343 6.126H137.607Z" fill="#FFBD3A"/>
</svg>
